<svg width="33" height="32" viewBox="0 0 33 32" fill="none" xmlns="http://www.w3.org/2000/svg">
<path d="M7.68572 0C3.86778 0 0.761719 3.11213 0.761719 6.9375C0.760157 10.7825 3.89978 13.8813 7.68572 13.875C11.4716 13.8813 14.6113 10.7824 14.6097 6.9375C14.6097 3.11213 11.5036 0 7.68572 0ZM5.03459 11.2448V11.1119C5.03459 10.1542 5.81222 9.375 6.76809 9.375H8.60328C9.55909 9.375 10.3368 10.1542 10.3368 11.1119V11.2448C9.56553 11.7231 8.65747 12 7.68572 12C6.71397 12 5.80584 11.7231 5.03459 11.2448ZM7.68572 7.5C7.16978 7.5 6.75003 7.07944 6.75003 6.5625C6.75003 6.04556 7.16978 5.625 7.68572 5.625C8.20166 5.625 8.62141 6.04556 8.62141 6.5625C8.62141 7.07944 8.20166 7.5 7.68572 7.5ZM11.9192 9.69581C11.577 8.89444 10.9538 8.24131 10.1742 7.8615C10.3772 7.47263 10.4927 7.03094 10.4927 6.56244C10.4927 5.01163 9.23347 3.74994 7.68572 3.74994C6.13797 3.74994 4.87872 5.01163 4.87872 6.56244C4.87872 7.03088 4.99428 7.47256 5.19728 7.8615C4.41772 8.24131 3.79441 8.89444 3.45222 9.69581C2.93497 8.90163 2.63309 7.9545 2.63309 6.9375C2.63309 4.14606 4.89972 1.875 7.68572 1.875C10.4717 1.875 12.7383 4.14606 12.7383 6.9375C12.7383 7.9545 12.4364 8.90163 11.9192 9.69581Z" fill="#8EBAC5"/>
<path d="M32.6995 6.9375C32.6995 3.11213 29.5934 0 25.7755 0C21.9576 0 18.8516 3.11213 18.8516 6.9375C18.85 10.7825 21.9896 13.8813 25.7756 13.875C29.5614 13.8813 32.7011 10.7824 32.6995 6.9375ZM20.7229 6.9375C20.7229 4.14606 22.9895 1.875 25.7755 1.875C28.5615 1.875 30.8281 4.14606 30.8281 6.9375C30.8281 7.9545 30.5262 8.90163 30.009 9.69581C29.6668 8.89444 29.0436 8.24131 28.2639 7.8615C28.467 7.47263 28.5825 7.03094 28.5825 6.56244C28.5825 5.01163 27.3232 3.74994 25.7755 3.74994C24.2277 3.74994 22.9685 5.01163 22.9685 6.56244C22.9685 7.03088 23.084 7.47256 23.2871 7.8615C22.5075 8.24131 21.8842 8.89444 21.542 9.69581C21.0248 8.90163 20.7229 7.9545 20.7229 6.9375ZM24.8399 6.5625C24.8399 6.04556 25.2596 5.625 25.7756 5.625C26.2915 5.625 26.7113 6.04556 26.7113 6.5625C26.7113 7.07944 26.2915 7.5 25.7756 7.5C25.2596 7.5 24.8399 7.07944 24.8399 6.5625ZM23.1244 11.2448V11.1119C23.1244 10.1542 23.9021 9.375 24.8579 9.375H26.6931C27.6489 9.375 28.4266 10.1542 28.4266 11.1119V11.2448C27.6554 11.7231 26.7472 12 25.7755 12C24.8038 12 23.8957 11.7231 23.1244 11.2448Z" fill="#8EBAC5"/>
<path d="M16.7931 15.0625C16.2764 15.0625 15.8574 15.4822 15.8574 16V31.0625C15.8574 31.5802 16.2764 32 16.7931 32C17.3099 32 17.7288 31.5802 17.7288 31.0625V16C17.7288 15.4822 17.3099 15.0625 16.7931 15.0625Z" fill="#8EBAC5"/>
<path d="M20.5509 16.8613C20.0342 16.8613 19.6152 17.2811 19.6152 17.7988V29.2631C19.6152 29.7808 20.0342 30.2006 20.5509 30.2006C21.0677 30.2006 21.4866 29.7808 21.4866 29.2631V17.7988C21.4865 17.2811 21.0677 16.8613 20.5509 16.8613Z" fill="#8EBAC5"/>
<path d="M24.3087 19.748C23.792 19.748 23.373 20.1678 23.373 20.6855V26.3777C23.373 26.8954 23.792 27.3152 24.3087 27.3152C24.8255 27.3152 25.2444 26.8954 25.2444 26.3777V20.6855C25.2444 20.1678 24.8255 19.748 24.3087 19.748Z" fill="#8EBAC5"/>
<path d="M28.0685 17.0918C27.5518 17.0918 27.1328 17.5115 27.1328 18.0293V29.0319C27.1328 29.5496 27.5518 29.9694 28.0685 29.9694C28.5853 29.9694 29.0042 29.5496 29.0042 29.0319V18.0293C29.0041 17.5115 28.5853 17.0918 28.0685 17.0918Z" fill="#8EBAC5"/>
<path d="M31.8263 21.1387C31.3096 21.1387 30.8906 21.5584 30.8906 22.0762V24.9865C30.8906 25.5043 31.3096 25.924 31.8263 25.924C32.3431 25.924 32.762 25.5043 32.762 24.9865V22.0762C32.762 21.5584 32.3431 21.1387 31.8263 21.1387Z" fill="#8EBAC5"/>
<path d="M13.0353 18.4844C12.5185 18.4844 12.0996 18.9041 12.0996 19.4219V27.6428C12.0996 28.1606 12.5185 28.5803 13.0353 28.5803C13.552 28.5803 13.971 28.1606 13.971 27.6428V19.4219C13.971 18.9041 13.552 18.4844 13.0353 18.4844Z" fill="#8EBAC5"/>
<path d="M9.27553 20.0859C8.75878 20.0859 8.33984 20.5057 8.33984 21.0234V26.0412C8.33984 26.5589 8.75878 26.9787 9.27553 26.9787C9.79228 26.9787 10.2112 26.5589 10.2112 26.0412V21.0234C10.2112 20.5057 9.79228 20.0859 9.27553 20.0859Z" fill="#8EBAC5"/>
<path d="M5.51772 18.6504C5.00097 18.6504 4.58203 19.0701 4.58203 19.5879V27.4716C4.58203 27.9894 5.00097 28.4091 5.51772 28.4091C6.03447 28.4091 6.45341 27.9894 6.45341 27.4716V19.5879C6.45341 19.0701 6.03447 18.6504 5.51772 18.6504Z" fill="#8EBAC5"/>
<path d="M1.75991 21.1387C1.24316 21.1387 0.824219 21.5584 0.824219 22.0762V24.9865C0.824219 25.5043 1.24316 25.924 1.75991 25.924C2.27666 25.924 2.69559 25.5043 2.69559 24.9865V22.0762C2.69559 21.5584 2.27666 21.1387 1.75991 21.1387Z" fill="#8EBAC5"/>
</svg>
